<?xml version="1.0" standalone="no"?>
<!DOCTYPE svg PUBLIC "-//W3C//DTD SVG 20010904//EN"
 "http://www.w3.org/TR/2001/REC-SVG-20010904/DTD/svg10.dtd">
<svg version="1.0" xmlns="http://www.w3.org/2000/svg"
 width="208.000000pt" height="76.000000pt" viewBox="0 0 208.000000 76.000000"
 preserveAspectRatio="xMidYMid meet">

<g transform="translate(0.000000,76.000000) scale(0.100000,-0.100000)"
fill="#000000" stroke="none">
<path d="M1025 698 c-3 -8 -4 -99 -3 -203 l3 -190 25 0 c25 0 25 1 30 98 5 93
7 100 33 123 39 34 95 33 128 -2 21 -22 25 -38 29 -122 5 -95 5 -97 30 -97 25
0 25 1 28 100 3 118 -12 156 -74 193 -39 23 -91 25 -151 7 -20 -7 -22 -3 -25
46 -3 47 -6 54 -26 57 -12 2 -24 -3 -27 -10z"/>
<path d="M137 605 c-61 -21 -88 -73 -65 -123 15 -31 63 -51 126 -51 50 -1 64
-21 37 -51 -25 -27 -68 -25 -103 5 -34 29 -45 31 -61 11 -17 -21 5 -62 44 -81
74 -34 175 -6 198 55 6 17 14 30 17 30 3 -1 14 -15 25 -32 58 -90 200 -89 263
2 31 45 31 124 -1 171 -31 47 -104 82 -151 73 -67 -12 -122 -66 -149 -148 -3
-8 -11 -7 -30 3 -14 7 -52 16 -84 20 -50 5 -58 9 -61 28 -5 35 36 50 76 29 39
-20 58 -20 66 0 10 26 -12 52 -52 64 -46 12 -48 12 -95 -5z m392 -69 c68 -36
65 -128 -6 -161 -38 -18 -67 -13 -100 17 -44 41 -36 115 16 143 33 18 55 18
90 1z"/>
<path d="M777 606 c-89 -33 -107 -73 -107 -248 0 -137 5 -158 41 -158 25 0 29
20 29 156 0 138 9 165 61 183 57 20 119 -26 119 -88 0 -29 -46 -79 -81 -86
-35 -8 -47 -29 -29 -50 32 -39 122 -1 157 65 29 54 29 104 0 154 -38 68 -118
98 -190 72z"/>
<path d="M1451 598 c-60 -31 -83 -66 -89 -130 -3 -44 0 -59 20 -87 39 -58 72
-76 136 -76 71 0 114 28 145 94 25 51 24 51 139 36 71 -9 88 -25 59 -54 -28
-28 -73 -27 -109 4 -37 31 -64 24 -60 -13 4 -38 60 -72 115 -72 64 0 110 23
129 63 33 69 -2 113 -97 124 -81 9 -99 29 -53 60 24 16 28 16 59 -2 38 -20 65
-15 65 12 0 30 -15 44 -59 54 -50 11 -110 -2 -134 -29 -9 -10 -20 -33 -23 -50
-8 -41 -15 -40 -38 3 -40 74 -131 102 -205 63z m130 -77 c37 -37 38 -79 3
-120 -44 -53 -130 -38 -151 26 -32 93 78 163 148 94z"/>
<path d="M1260 170 c0 -27 5 -50 10 -50 6 0 10 23 10 50 0 28 -4 50 -10 50 -5
0 -10 -22 -10 -50z"/>
<path d="M1462 194 c-7 -8 -8 -14 -2 -14 5 0 10 -10 10 -23 0 -24 17 -47 35
-47 5 0 2 5 -7 11 -22 12 -24 56 -3 61 13 2 13 5 -2 14 -14 9 -21 8 -31 -2z"/>
<path d="M1022 173 c2 -10 14 -19 26 -21 31 -5 22 -28 -9 -24 -17 2 -21 0 -12
-9 6 -6 21 -8 33 -4 27 9 22 39 -8 43 -12 2 -22 8 -22 14 0 6 11 8 25 6 14 -3
25 -1 25 3 0 5 -14 9 -31 9 -24 0 -30 -4 -27 -17z"/>
<path d="M1140 156 c0 -38 20 -52 51 -36 36 20 20 70 -22 70 -26 0 -29 -3 -29
-34z m48 -3 c-2 -17 -9 -28 -18 -28 -9 0 -16 11 -18 28 -3 22 1 27 18 27 17 0
21 -5 18 -27z"/>
<path d="M1341 158 c0 -21 1 -38 3 -38 2 0 13 -3 23 -6 17 -6 17 -6 1 7 -9 8
-19 28 -21 44 -4 27 -4 26 -6 -7z"/>
<path d="M1393 155 c0 -22 2 -30 4 -17 2 12 2 30 0 40 -3 9 -5 -1 -4 -23z"/>
<path d="M1563 155 c0 -22 2 -30 4 -17 2 12 2 30 0 40 -3 9 -5 -1 -4 -23z"/>
<path d="M1637 184 c-12 -12 -8 -51 8 -64 8 -6 23 -9 35 -5 17 5 20 13 18 38
-2 26 -8 33 -28 35 -14 2 -29 0 -33 -4z m51 -31 c-2 -20 -9 -28 -23 -28 -14 0
-21 8 -23 28 -3 23 0 27 23 27 23 0 26 -4 23 -27z"/>
<path d="M1762 153 c1 -37 1 -37 5 -5 3 24 9 32 24 32 14 0 19 -7 19 -30 0
-16 5 -30 10 -30 6 0 10 9 10 19 0 37 -12 51 -41 51 -27 0 -29 -2 -27 -37z"/>
<path d="M1885 180 c-9 -15 4 -30 25 -30 10 0 22 -5 25 -10 10 -16 -23 -24
-40 -10 -9 8 -15 8 -15 2 0 -19 41 -25 57 -9 18 18 9 37 -17 37 -31 0 -33 18
-3 23 l28 4 -27 2 c-15 0 -30 -3 -33 -9z"/>
</g>
</svg>
